#!OML:ASF I:\Actors\actors\Patient Classification 2\Patient 1\Session 1\actor1.ASF
:FULLY-SPECIFIED
:DEGREES
215
root 1.66897 18.4338 2.79365 10.3566 21.3728 0.612601
lowerback 20.1865 3.18021 -3.70004
upperback 3.4024 3.42768 0.214494
thorax -7.80784 1.76027 1.42411
lowerneck -4.3658 -11.8999 -13.515
upperneck 23.4617 -17.7265 13.044
head 10.6527 -8.19562 4.73455
rclavicle -1.59028e-015 4.45278e-014
rhumerus -34.4181 13.9071 -81.0959
rradius 79.5034
rwrist -43.6083
rhand -12.9494 -75.5602
rfingers 7.12502
rthumb 13.142 -254.874
lclavicle -1.59028e-015 4.45278e-014
lhumerus -41.3414 -33.6055 104.122
lradius 86.8315
lwrist 35.3143
lhand -11.6459 -10.1029
lfingers 7.12502
lthumb 14.3982 19.3778
rfemur -16.715 -8.32033 6.95317
rtibia 24.6882
rfoot -23.0224 -17.3615
rtoes 6.9976
lfemur -25.3293 -3.49401 -25.0038
ltibia 37.1319
lfoot -21.5823 2.12631
ltoes -46.1585
216
root 1.66047 18.427 2.80955 10.2013 20.8525 1.06897
lowerback 20.2685 3.24069 -4.35792
upperback 3.38082 3.35158 0.102274
thorax -7.90018 1.74044 1.69137
lowerneck -4.81228 -11.876 -13.2441
upperneck 23.8059 -17.6446 12.6951
head 10.7884 -8.13849 4.55776
rclavicle 6.80837e-014 -2.32578e-014
rhumerus -36.0617 13.7534 -82.4925
rradius 80.0686
rwrist -43.4171
rhand -14.1478 -75.0717
rfingers 7.12502
rthumb 11.9866 -255.292
lclavicle 6.80837e-014 -2.32578e-014
lhumerus -41.4257 -33.5192 103.981
lradius 86.9336
lwrist 35.3731
lhand -11.7394 -10.0747
lfingers 7.12502
lthumb 14.3081 19.4124
rfemur -16.9381 -7.30797 6.24992
rtibia 24.4552
rfoot -22.4729 -16.5889
rtoes 5.86515
lfemur -24.8346 -3.25651 -25.4851
ltibia 36.9921
lfoot -21.7345 2.21113
ltoes -46.2656
217
root 1.65027 18.4245 2.84326 10.0326 20.9871 0.713619
lowerback 19.9887 3.02258 -4.05136
upperback 3.29713 3.15372 0.211951
thorax -7.8192 1.6396 1.69989
lowerneck -4.92523 -11.9192 -12.9747
upperneck 23.8758 -17.6978 12.5028
head 10.7957 -8.15206 4.43227
rclavicle 1.03865e-013 -1.98785e-014
rhumerus -37.7212 13.5021 -83.8274
rradius 80.5875
rwrist -43.6325
rhand -15.7656 -74.7039
rfingers 7.12502
rthumb 10.4262 -255.575
lclavicle 1.03865e-013 -1.98785e-014
lhumerus -41.5374 -33.4322 103.862
lradius 86.9862
lwrist 35.4123
lhand -11.7401 -10.0615
lfingers 7.12502
lthumb 14.3074 19.4256
rfemur -17.0947 -6.67199 6.51788
rtibia 23.8152
rfoot -22.2398 -16.0402
rtoes 4.87024
lfemur -24.6339 -3.12598 -25.0428
ltibia 36.9177
lfoot -21.7621 2.01959
ltoes -47.2262
218
root 1.63692 18.4065 2.87342 9.91962 20.9263 0.691456
lowerback 19.7823 2.91217 -4.11202
upperback 3.26064 3.01081 0.269052
thorax -7.74521 1.57331 1.84159
lowerneck -4.90732 -11.9983 -12.9327
upperneck 23.8675 -17.8206 12.4883
head 10.8022 -8.2084 4.40078
rclavicle -7.196e-014 6.55989e-015
rhumerus -39.145 13.0318 -84.6944
rradius 81.2992
rwrist -43.1027
rhand -14.3906 -75.1071
rfingers 7.12502
rthumb 11.7525 -255.243
lclavicle -7.196e-014 6.55989e-015
lhumerus -41.5661 -33.2614 103.781
lradius 86.98
lwrist 35.3924
lhand -11.6874 -10.1155
lfingers 7.12502
lthumb 14.3583 19.3679
rfemur -17.1898 -5.99318 6.38777
rtibia 22.9027
rfoot -22.0916 -15.6111
rtoes 4.33253
lfemur -24.3402 -2.71298 -25.0567
ltibia 36.8303
lfoot -21.7845 2.11709
ltoes -49.136
219
root 1.62576 18.4184 2.90107 9.84991 20.8198 0.785546
lowerback 19.6381 2.84041 -4.28386
upperback 3.22367 2.89256 0.329774
thorax -7.71158 1.52209 2.04065
lowerneck -4.93159 -12.0988 -13.1297
upperneck 23.9417 -17.9738 12.5717
head 10.8887 -8.28526 4.43337
rclavicle 3.1408e-014 -3.97569e-016
rhumerus -40.4778 12.6855 -85.3547
rradius 81.8228
rwrist -43.1592
rhand -14.4062 -74.7216
rfingers 7.12502
rthumb 11.7374 -255.627
lclavicle 3.1408e-014 -3.97569e-016
lhumerus -41.5551 -33.078 103.772
lradius 86.9625
lwrist 35.3557
lhand -11.6736 -10.1213
lfingers 7.12502
lthumb 14.3715 19.3612
rfemur -17.2185 -5.35193 6.1393
rtibia 21.7259
rfoot -21.9933 -15.4461
rtoes 3.94797
lfemur -24.1789 -2.74637 -24.9892
ltibia 36.8313
lfoot -21.9865 1.81699
ltoes -47.8038
220
root 1.61133 18.4201 2.92929 9.72077 20.7966 0.821955
lowerback 19.6084 2.74813 -4.32626
upperback 3.16787 2.77067 0.415522
thorax -7.75417 1.46731 2.18973
lowerneck -4.87572 -12.1968 -13.3105
upperneck 23.907 -18.1228 12.6657
head 10.9181 -8.36433 4.47166
rclavicle 2.3059e-014 6.75868e-015
rhumerus -41.7037 12.3074 -85.9548
rradius 82.1696
rwrist -43.6244
rhand -16.0187 -74.1084
rfingers 7.12502
rthumb 10.1821 -256.158
lclavicle 2.3059e-014 6.75868e-015
lhumerus -41.6602 -32.9796 103.81
lradius 87.0438
lwrist 35.3856
lhand -11.689 -9.99982
lfingers 7.12502
lthumb 14.3567 19.4837
rfemur -17.2064 -4.74582 5.92923
rtibia 20.5144
rfoot -21.7574 -15.4766
rtoes 3.51067
lfemur -23.9347 -2.6828 -24.9101
ltibia 36.8069
lfoot -22.1339 1.5859
ltoes -47.0061
221
root 1.59465 18.4171 2.95833 9.57712 20.808 0.876298
lowerback 19.6377 2.65981 -4.3318
upperback 3.10505 2.65706 0.483208
thorax -7.83372 1.41599 2.29422
lowerneck -4.74941 -12.2912 -13.3292
upperneck 23.7703 -18.2623 12.6868
head 10.8688 -8.43795 4.4643
rclavicle 4.88016e-014 -7.95139e-016
rhumerus -42.7234 11.7648 -86.5012
rradius 82.3323
rwrist -43.9279
rhand -17.046 -73.806
rfingers 7.12502
rthumb 9.191 -256.414
lclavicle 4.88016e-014 -7.95139e-016
lhumerus -41.851 -32.9638 103.854
lradius 87.1619
lwrist 35.4796
lhand -11.6643 -9.88626
lfingers 7.12502
lthumb 14.3805 19.5956
rfemur -17.1193 -4.09438 5.65709
rtibia 19.1896
rfoot -21.3698 -15.6379
rtoes 3.80885
lfemur -23.6706 -2.54153 -24.8823
ltibia 36.8143
lfoot -22.3097 1.43081
ltoes -47.2245
222
root 1.57577 18.4137 2.98657 9.52923 20.8528 1.01118
lowerback 19.6085 2.56657 -4.36285
upperback 3.04413 2.53214 0.521011
thorax -7.87819 1.35914 2.38587
lowerneck -4.64529 -12.4027 -13.3325
upperneck 23.6365 -18.423 12.6976
head 10.8256 -8.51962 4.44609
rclavicle 7.2954e-014 -2.62396e-014
rhumerus -43.536 11.1816 -86.9028
rradius 82.4768
rwrist -44.0695
rhand -17.139 -73.8144
rfingers 7.12502
rthumb 9.10122 -256.402
lclavicle 7.2954e-014 -2.62396e-014
lhumerus -41.9755 -32.9658 103.866
lradius 87.2054
lwrist 35.517
lhand -11.6034 -9.91496
lfingers 7.12502
lthumb 14.4391 19.5627
rfemur -17.2024 -3.47654 5.27718
rtibia 18.083
rfoot -20.8485 -15.8105
rtoes 4.59058
lfemur -23.4531 -2.47028 -24.9307
ltibia 36.7357
lfoot -22.4477 1.35929
ltoes -47.4795
223
root 1.55621 18.4055 3.01663 9.49984 20.9271 1.20318
lowerback 19.5576 2.48365 -4.39919
upperback 3.00682 2.42325 0.581277
thorax -7.88719 1.30969 2.50168
lowerneck -4.58469 -12.5265 -13.4559
upperneck 23.5329 -18.5889 12.7244
head 10.8181 -8.60883 4.44781
rclavicle 1.35174e-014 -2.40529e-014
rhumerus -44.0694 10.367 -86.7473
rradius 82.4533
rwrist -42.5459
rhand -12.9914 -74.9868
rfingers 7.12502
rthumb 13.1014 -255.445
lclavicle 1.35174e-014 -2.40529e-014
lhumerus -42.0843 -33.023 103.939
lradius 87.241
lwrist 35.4749
lhand -11.6373 -9.99528
lfingers 7.12502
lthumb 14.4065 19.4847
rfemur -17.2136 -2.91312 4.80651
rtibia 16.9111
rfoot -20.0643 -16.0073
rtoes 5.87152
lfemur -23.2228 -2.37682 -25.0699
ltibia 36.6793
lfoot -22.501 1.44327
ltoes -48.6646
224
root 1.53397 18.3873 3.04926 9.41924 20.9612 1.36504
lowerback 19.5287 2.42305 -4.39552
upperback 3.00181 2.35303 0.659014
thorax -7.87469 1.27708 2.60331
lowerneck -4.51851 -12.6407 -13.5854
upperneck 23.3962 -18.7488 12.7989
head 10.8026 -8.69248 4.46858
rclavicle -6.9674e-014 1.98785e-015
rhumerus -44.5017 9.71832 -86.5088
rradius 82.4522
rwrist -41.9346
rhand -11.5429 -74.5218
rfingers 7.12502
rthumb 14.4975 -256.005
lclavicle -6.9674e-014 1.98785e-015
lhumerus -42.1383 -33.121 104
lradius 87.2696
lwrist 35.4834
lhand -11.6724 -10.0428
lfingers 7.12502
lthumb 14.3727 19.4396
rfemur -17.152 -2.32707 4.33957
rtibia 15.7178
rfoot -19.2865 -16.2052
rtoes 7.30347
lfemur -22.927 -2.06693 -25.2501
ltibia 36.6247
lfoot -22.4697 1.73446
ltoes -50.6141
